<svg width="24" height="24" viewBox="0 0 24 24" fill="none" xmlns="http://www.w3.org/2000/svg">
<path d="M16.6875 0.75C15.0066 0.75 13.4831 1.065 12.2925 1.65844C11.1028 2.25187 10.125 3.21844 10.125 4.5V8.25C10.125 8.37094 10.1653 8.48812 10.1841 8.60156C9.24565 8.3631 8.28072 8.24497 7.3125 8.25C5.63156 8.25 4.10812 8.565 2.9175 9.15844C1.72781 9.75187 0.75 10.7184 0.75 12V19.5C0.75 20.7816 1.72781 21.7481 2.91844 22.3416C4.10813 22.935 5.63156 23.25 7.3125 23.25C8.99344 23.25 10.5169 22.935 11.7075 22.3416C12.8962 21.7481 13.875 20.7816 13.875 19.5V19.1194C14.7921 19.3673 15.7375 19.4952 16.6875 19.5C18.3684 19.5 19.8919 19.185 21.0825 18.5916C22.2712 17.9981 23.25 17.0316 23.25 15.75V4.5C23.25 3.21844 22.2722 2.25187 21.0816 1.65844C19.8928 1.065 18.3694 0.75 16.6875 0.75ZM16.6875 2.625C18.1153 2.625 19.3866 2.9325 20.2322 3.35719C21.0788 3.78188 21.375 4.22906 21.375 4.5C21.375 4.77187 21.0788 5.21812 20.2322 5.64281C19.3875 6.0675 18.1153 6.375 16.6875 6.375C15.2597 6.375 13.9884 6.0675 13.1428 5.64281C12.2963 5.21812 12 4.77094 12 4.5C12 4.22813 12.2963 3.78188 13.1428 3.35719C13.9875 2.9325 15.2597 2.625 16.6875 2.625ZM12 7.16625C12.0984 7.22062 12.1903 7.29094 12.2934 7.34156C13.4831 7.935 15.0066 8.25 16.6875 8.25C18.3684 8.25 19.8919 7.935 21.0825 7.34156C21.1847 7.29094 21.2766 7.22062 21.375 7.16625V8.25C21.375 8.52187 21.0788 8.96812 20.2322 9.39281C19.3866 9.8175 18.1153 10.125 16.6875 10.125C15.2597 10.125 13.9884 9.8175 13.1428 9.39281C12.2963 8.96812 12 8.52094 12 8.25V7.16625ZM7.3125 10.125C8.74031 10.125 10.0116 10.4325 10.8572 10.8572C11.7037 11.2819 12 11.7291 12 12C12 12.2719 11.7037 12.7181 10.8572 13.1428C10.0116 13.5675 8.74031 13.875 7.3125 13.875C5.88469 13.875 4.61344 13.5675 3.76781 13.1428C2.92125 12.7181 2.625 12.2709 2.625 12C2.625 11.7281 2.92125 11.2819 3.76781 10.8572C4.6125 10.4325 5.88469 10.125 7.3125 10.125ZM21.375 10.9163V12C21.375 12.2719 21.0788 12.7181 20.2322 13.1428C19.3866 13.5675 18.1153 13.875 16.6875 13.875C15.7325 13.8802 14.7829 13.7317 13.875 13.4353V12C13.875 11.8791 13.8347 11.7619 13.8159 11.6484C14.6878 11.8753 15.6544 12 16.6875 12C18.3684 12 19.8919 11.685 21.0825 11.0916C21.1847 11.0409 21.2766 10.9706 21.375 10.9163ZM2.625 14.6663C2.72344 14.7206 2.81531 14.7909 2.91844 14.8416C4.10813 15.435 5.63156 15.75 7.3125 15.75C8.99344 15.75 10.5169 15.435 11.7075 14.8416C11.8097 14.7909 11.9016 14.7206 12 14.6663V15.75C12 16.0219 11.7037 16.4681 10.8572 16.8928C10.0116 17.3175 8.74031 17.625 7.3125 17.625C5.88469 17.625 4.61344 17.3175 3.76781 16.8928C2.92125 16.4681 2.625 16.0209 2.625 15.75V14.6663ZM21.375 14.6663V15.75C21.375 16.0219 21.0788 16.4681 20.2322 16.8928C19.3866 17.3175 18.1153 17.625 16.6875 17.625C15.6216 17.625 14.6587 17.475 13.875 17.2144V15.3984C14.7356 15.6253 15.6731 15.75 16.6875 15.75C18.3684 15.75 19.8919 15.435 21.0825 14.8416C21.1847 14.7909 21.2766 14.7206 21.375 14.6663ZM2.625 18.4163C2.72344 18.4706 2.81531 18.5409 2.91844 18.5916C4.10813 19.185 5.63156 19.5 7.3125 19.5C8.99344 19.5 10.5169 19.185 11.7075 18.5916C11.8097 18.5409 11.9016 18.4706 12 18.4163V19.5C12 19.7719 11.7037 20.2181 10.8572 20.6428C10.0116 21.0675 8.74031 21.375 7.3125 21.375C5.88469 21.375 4.61344 21.0675 3.76781 20.6428C2.92125 20.2181 2.625 19.7709 2.625 19.5V18.4163Z" fill="#1F60E9"/>
</svg>
