<svg width="18" height="18" viewBox="0 0 18 18" fill="none" xmlns="http://www.w3.org/2000/svg">
<path d="M15.4006 6.59985H8.20059C7.31693 6.59985 6.60059 7.3162 6.60059 8.19985V15.3999C6.60059 16.2835 7.31693 16.9999 8.20059 16.9999H15.4006C16.2842 16.9999 17.0006 16.2835 17.0006 15.3999V8.19985C17.0006 7.3162 16.2842 6.59985 15.4006 6.59985Z" stroke="#1F60E9" stroke-width="2" stroke-linecap="round" stroke-linejoin="round"/>
<path d="M3.4 11.4H2.6C2.17565 11.4 1.76869 11.2314 1.46863 10.9314C1.16857 10.6313 1 10.2243 1 9.8V2.6C1 2.17565 1.16857 1.76869 1.46863 1.46863C1.76869 1.16857 2.17565 1 2.6 1H9.8C10.2243 1 10.6313 1.16857 10.9314 1.46863C11.2314 1.76869 11.4 2.17565 11.4 2.6V3.4" stroke="#1F60E9" stroke-width="2" stroke-linecap="round" stroke-linejoin="round"/>
</svg>
